<svg xmlns="http://www.w3.org/2000/svg" xmlns:xlink="http://www.w3.org/1999/xlink" version="1.1" id="Ebene_1" x="0px" y="0px" viewBox="0 0 20.7 25" style="enable-background:new 0 0 20.7 25;" xml:space="preserve">
<style type="text/css">
	.st0{fill:#FFFFFF;stroke:#FFFFFF;stroke-width:0.5;}
</style>
<path id="Compound_Path" class="st0" d="M20.4,20.2L19.2,7.9c0-0.3-0.3-0.6-0.6-0.6h-3.1V4.8c-0.2-2.7-2.6-4.8-5.4-4.6  C7.6,0.5,5.7,2.4,5.5,4.8v2.5H2.2c-0.3,0-0.6,0.3-0.6,0.6L0.3,20.2C0,22.5,1.7,24.5,4,24.8c0.1,0,0.3,0,0.4,0h11.7  c2.3,0,4.2-1.9,4.2-4.2C20.4,20.5,20.4,20.3,20.4,20.2z M6.8,4.8c0.2-2,2-3.5,4-3.3c1.8,0.2,3.2,1.6,3.3,3.3v2.5H6.8V4.8z   M18.4,22.6c-0.6,0.6-1.3,1-2.2,1H4.5c-1.6,0-2.9-1.3-2.9-2.9c0-0.1,0-0.2,0-0.3L2.7,8.7h2.8V13c0,0.4,0.3,0.6,0.6,0.6  c0.4,0,0.6-0.3,0.6-0.6V8.6h7.3V13c0,0.4,0.3,0.6,0.6,0.6c0.4,0,0.6-0.3,0.6-0.6V8.6h2.5l1.2,11.6C19.2,21.1,18.9,21.9,18.4,22.6  L18.4,22.6z"/>
</svg>