<svg width="353" height="278" viewBox="0 0 353 278" fill="none" xmlns="http://www.w3.org/2000/svg">
<g clip-path="url(#clip0_366_1465)">
<path d="M98.8033 277.983C90.3497 277.978 82.1969 274.85 75.9156 269.201C69.6343 263.552 65.6689 255.782 64.7833 247.388H49.748V243.929C49.716 237.502 47.1389 231.349 42.5793 226.812C38.0197 222.276 31.8478 219.725 25.411 219.716C18.656 219.707 12.1803 217.023 7.40379 212.254C2.62729 207.485 -0.0601704 201.019 -0.0693359 194.275V83.8808C-0.0647915 80.5338 0.600288 77.2206 1.88782 74.1304C3.17535 71.0401 5.06011 68.2335 7.43445 65.8709C9.80878 63.5082 12.6261 61.6359 15.7255 60.3608C18.8249 59.0858 22.1455 58.433 25.4976 58.4398C31.9343 58.4079 38.0971 55.8348 42.6405 51.2822C47.1839 46.7296 49.739 40.5672 49.748 34.1404V30.6813H64.7141C65.5969 22.2723 69.5704 14.4884 75.8667 8.83435C82.163 3.18026 90.335 0.0573466 98.8033 0.0691864H254.145C262.609 0.0654814 270.775 3.19166 277.066 8.8446C283.358 14.4976 287.33 22.2767 288.217 30.6813H303.183V34.1404C303.21 40.5686 305.786 46.7244 310.346 51.2618C314.907 55.7991 321.081 58.3489 327.52 58.3534C334.275 58.3625 340.75 61.0458 345.527 65.815C350.303 70.5841 352.991 77.0498 353 83.7943V194.015C352.991 200.76 350.303 207.226 345.527 211.995C340.75 216.764 334.275 219.447 327.52 219.456C321.081 219.461 314.907 222.011 310.346 226.548C305.786 231.085 303.21 237.241 303.183 243.669V247.128H288.217C287.387 255.577 283.439 263.415 277.141 269.117C270.844 274.82 262.647 277.98 254.145 277.983H98.8033Z" fill="#F2D6B0"/>
<path d="M327.52 61.8988C320.163 61.8943 313.107 58.9802 307.897 53.7941C302.687 48.6081 299.746 41.5724 299.718 34.2268H284.926C284.928 30.1919 284.133 26.1961 282.587 22.4683C281.04 18.7405 278.772 15.3538 275.913 12.5023C273.054 9.65075 269.66 7.39031 265.924 5.8504C262.189 4.3105 258.186 3.52136 254.145 3.52818H98.8034C90.6656 3.52816 82.8601 6.75116 77.0993 12.4901C71.3386 18.229 68.093 26.0151 68.0746 34.1403H53.2126C53.1851 41.486 50.2444 48.5216 45.0341 53.7076C39.8238 58.8937 32.7682 61.8078 25.4112 61.8124C19.5722 61.8124 13.9723 64.1283 9.84354 68.2507C5.71475 72.3732 3.39519 77.9644 3.39519 83.7943V194.015C3.38374 196.917 3.94761 199.792 5.05431 202.474C6.16101 205.157 7.78868 207.594 9.84338 209.646C11.8981 211.697 14.3392 213.322 17.026 214.427C19.7128 215.532 22.592 216.095 25.4978 216.084C32.8697 216.111 39.9294 219.059 45.1259 224.28C50.3225 229.501 53.231 236.568 53.2126 243.929H68.0054C68.0054 252.066 71.2428 259.87 77.0056 265.624C82.7684 271.378 90.5844 274.61 98.7341 274.61H254.145C258.185 274.617 262.186 273.828 265.92 272.29C269.654 270.751 273.048 268.492 275.907 265.642C278.766 262.792 281.034 259.408 282.582 255.682C284.129 251.956 284.926 247.962 284.926 243.929H299.718C299.746 236.583 302.687 229.548 307.897 224.362C313.107 219.175 320.163 216.261 327.52 216.257C333.359 216.257 338.959 213.941 343.087 209.818C347.216 205.696 349.536 200.105 349.536 194.275V83.8808C349.536 78.0508 347.216 72.4596 343.087 68.3372C338.959 64.2148 333.359 61.8988 327.52 61.8988Z" fill="#2E0A16"/>
<path d="M98.8031 269.335C92.0479 269.331 85.5693 266.655 80.7846 261.894C75.9998 257.133 73.2982 250.674 73.2708 243.929V238.74H58.0623C56.7976 231.02 52.8272 224 46.8595 218.932C40.8917 213.863 33.3147 211.076 25.4801 211.068C21.0193 211.068 16.7412 209.299 13.5869 206.15C10.4327 203 8.66064 198.729 8.66064 194.275V83.8808C8.66064 79.4269 10.4327 75.1554 13.5869 72.0061C16.7412 68.8567 21.0193 67.0874 25.4801 67.0874C33.3147 67.0793 40.8917 64.2925 46.8595 59.2241C52.8272 54.1557 56.7976 47.1353 58.0623 39.4153H73.2708V34.2268C73.2708 27.4641 75.9602 20.9781 80.748 16.1946C85.5357 11.411 92.0299 8.72128 98.8031 8.7167H254.145C260.912 8.7075 267.406 11.3792 272.203 16.1456C276.999 20.912 279.706 27.3836 279.729 34.1404V39.3289H294.92C296.192 47.0488 300.166 54.0674 306.136 59.135C312.106 64.2025 319.684 66.9899 327.519 67.0009C331.979 67.0055 336.254 68.7762 339.408 71.9246C342.561 75.073 344.334 79.3419 344.339 83.7943V194.015C344.334 198.468 342.561 202.737 339.408 205.885C336.254 209.034 331.979 210.804 327.519 210.809C319.684 210.82 312.106 213.607 306.136 218.675C300.166 223.742 296.192 230.761 294.92 238.481H279.729V243.669C279.749 247.035 279.102 250.372 277.826 253.488C276.549 256.603 274.667 259.435 272.289 261.821C269.91 264.207 267.083 266.099 263.969 267.389C260.855 268.678 257.516 269.34 254.145 269.335H98.8031Z" fill="#2E0A16"/>
<path d="M98.8031 265.876C92.9667 265.872 87.3693 263.561 83.2343 259.448C79.0992 255.336 76.7626 249.756 76.7351 243.929V235.281H60.9031C58.9361 227.385 54.381 220.371 47.9623 215.357C41.5436 210.343 33.6299 207.616 25.4801 207.609C21.9395 207.605 18.5453 206.198 16.0417 203.699C13.5381 201.199 12.1296 197.81 12.125 194.275V83.8808C12.1296 80.3457 13.5381 76.9567 16.0417 74.457C18.5453 71.9573 21.9395 70.5509 25.4801 70.5463C33.6299 70.54 41.5436 67.8127 47.9623 62.7985C54.381 57.7843 58.9361 50.771 60.9031 42.8743H76.7351V34.2268C76.7351 28.3815 79.0596 22.7753 83.1976 18.6404C87.3357 14.5055 92.9487 12.1803 98.8031 12.1757H254.145C259.993 12.1665 265.606 14.4738 269.753 18.5915C273.9 22.7092 276.241 28.301 276.264 34.1403V42.7878H292.096C294.063 50.6846 298.619 57.6978 305.037 62.712C311.456 67.7263 319.37 70.4535 327.519 70.4599C331.06 70.4644 334.454 71.8708 336.958 74.3705C339.461 76.8702 340.87 80.2592 340.875 83.7943V194.015C340.87 197.551 339.461 200.94 336.958 203.439C334.454 205.939 331.06 207.345 327.519 207.35C319.37 207.356 311.456 210.083 305.037 215.098C298.619 220.112 294.063 227.125 292.096 235.022H276.264V243.669C276.285 246.581 275.728 249.468 274.625 252.164C273.522 254.859 271.896 257.31 269.839 259.375C267.782 261.44 265.337 263.077 262.643 264.193C259.949 265.309 257.061 265.881 254.145 265.876H98.8031Z" fill="#2E0A16"/>
<path d="M98.8033 260.688C94.3302 260.683 90.0415 258.907 86.8785 255.749C83.7155 252.591 81.9365 248.309 81.9319 243.842V230.006H64.7661C61.8756 221.912 56.5489 214.907 49.5158 209.953C42.4827 205 34.0874 202.338 25.4803 202.334C23.3165 202.334 21.2414 201.476 19.7113 199.948C18.1813 198.421 17.3218 196.349 17.3218 194.188V83.8808C17.3218 81.7204 18.1813 79.6484 19.7113 78.1207C21.2414 76.5931 23.3165 75.7349 25.4803 75.7349C34.0874 75.7309 42.4827 73.0697 49.5158 68.1157C56.5489 63.1618 61.8756 56.1575 64.7661 48.0628H81.9319V34.2268C81.9319 29.7576 83.7089 25.4711 86.8724 22.3093C90.0359 19.1474 94.3272 17.3688 98.8033 17.3642H254.145C258.618 17.3688 262.907 19.145 266.07 22.3031C269.233 25.4613 271.012 29.7433 271.016 34.2095V48.0455H288.182C291.07 56.1416 296.396 63.1473 303.43 68.1016C310.464 73.0559 318.86 75.7162 327.468 75.7176C329.632 75.7176 331.707 76.5758 333.237 78.1035C334.767 79.6311 335.626 81.7031 335.626 83.8635V194.085C335.626 196.245 334.767 198.317 333.237 199.845C331.707 201.372 329.632 202.231 327.468 202.231C318.86 202.232 310.464 204.892 303.43 209.847C296.396 214.801 291.07 221.806 288.182 229.903H271.016V243.739C271.012 248.205 269.233 252.487 266.07 255.645C262.907 258.803 258.618 260.579 254.145 260.584L98.8033 260.688Z" fill="#C7A473"/>
<path d="M98.8033 255.603C95.6807 255.598 92.6874 254.358 90.4794 252.153C88.2715 249.949 87.029 246.96 87.0244 243.842V224.904H68.213C64.5315 216.665 58.5382 209.666 50.9576 204.755C43.3771 199.845 34.5339 197.232 25.4976 197.232C24.6844 197.232 23.9046 196.91 23.3296 196.336C22.7546 195.762 22.4316 194.983 22.4316 194.171V83.8808C22.4316 83.0689 22.7546 82.2903 23.3296 81.7162C23.9046 81.1421 24.6844 80.8196 25.4976 80.8196C34.5369 80.8237 43.3837 78.2123 50.9677 73.3012C58.5516 68.3902 64.5477 61.39 68.2304 53.1476H87.0418V34.1404C87.0463 31.0227 88.2888 28.034 90.4968 25.8294C92.7047 23.6249 95.698 22.3843 98.8205 22.3798H254.145C257.267 22.3843 260.261 23.6249 262.469 25.8294C264.676 28.034 265.919 31.0227 265.924 34.1404V53.0611H284.718C288.402 61.3062 294.4 68.3082 301.988 73.2195C309.575 78.1307 318.425 80.7406 327.468 80.7331C327.87 80.7331 328.267 80.8124 328.638 80.9665C329.009 81.1205 329.346 81.3463 329.63 81.6308C329.913 81.9153 330.137 82.2529 330.289 82.6242C330.441 82.9955 330.519 83.3932 330.516 83.7943V194.015C330.519 194.417 330.441 194.814 330.289 195.186C330.137 195.557 329.913 195.895 329.63 196.179C329.346 196.463 329.009 196.689 328.638 196.843C328.267 196.997 327.87 197.077 327.468 197.077C318.425 197.069 309.575 199.679 301.988 204.59C294.4 209.502 288.402 216.504 284.718 224.749H265.975V243.929C265.971 247.047 264.728 250.035 262.521 252.24C260.313 254.444 257.319 255.685 254.197 255.689L98.8033 255.603Z" fill="#F2D6B0"/>
<path d="M180.475 41.0929C180.223 41.3436 180.023 41.6414 179.887 41.9694C179.751 42.2973 179.68 42.6489 179.68 43.004C179.68 43.3591 179.751 43.7107 179.887 44.0387C180.023 44.3666 180.223 44.6645 180.475 44.9151C181.12 45.5334 181.98 45.8787 182.874 45.8787C183.769 45.8787 184.628 45.5334 185.273 44.9151C185.668 44.523 185.982 44.0567 186.195 43.5433C186.409 43.0298 186.519 42.4792 186.519 41.9231C186.519 41.367 186.409 40.8164 186.195 40.3029C185.982 39.7894 185.668 39.3232 185.273 38.931C184.782 38.4369 184.198 38.0447 183.554 37.777C182.911 37.5094 182.22 37.3716 181.523 37.3716C180.826 37.3716 180.136 37.5094 179.492 37.777C178.848 38.0447 178.264 38.4369 177.773 38.931C176.532 40.1728 175.835 41.8553 175.835 43.6093C175.835 45.3634 176.532 47.0458 177.773 48.2876C178.536 49.0535 179.443 49.6615 180.442 50.077C181.44 50.4925 182.511 50.7072 183.593 50.7089H220.367" stroke="#2E0A16" stroke-width="0.68" stroke-miterlimit="10"/>
<path d="M181.913 50.536C181.151 50.4754 180.384 50.5834 179.669 50.8525C178.953 51.1216 178.306 51.545 177.773 52.0926C177.156 52.7077 176.667 53.4384 176.335 54.2428C176.002 55.0471 175.831 55.9092 175.833 56.7795C175.835 55.9092 175.664 55.0471 175.331 54.2428C174.998 53.4384 174.509 52.7077 173.893 52.0926C173.36 51.545 172.713 51.1216 171.997 50.8525C171.281 50.5834 170.515 50.4754 169.753 50.536C171.321 50.1914 172.758 49.4052 173.893 48.2704C175.135 47.0258 175.833 45.3405 175.833 43.5834C175.833 45.3405 176.531 47.0258 177.773 48.2704C178.908 49.4052 180.344 50.1914 181.913 50.536Z" stroke="#2E0A16" stroke-width="0.68" stroke-miterlimit="10"/>
<path d="M171.191 41.0929C171.443 41.3436 171.643 41.6414 171.779 41.9694C171.915 42.2973 171.986 42.6489 171.986 43.004C171.986 43.3591 171.915 43.7107 171.779 44.0387C171.643 44.3666 171.443 44.6645 171.191 44.9151C170.546 45.5334 169.686 45.8787 168.792 45.8787C167.898 45.8787 167.038 45.5334 166.393 44.9151C165.998 44.523 165.684 44.0567 165.471 43.5433C165.257 43.0298 165.147 42.4792 165.147 41.9231C165.147 41.367 165.257 40.8164 165.471 40.3029C165.684 39.7894 165.998 39.3232 166.393 38.931C166.884 38.4369 167.468 38.0447 168.112 37.777C168.755 37.5094 169.446 37.3716 170.143 37.3716C170.84 37.3716 171.53 37.5094 172.174 37.777C172.818 38.0447 173.402 38.4369 173.893 38.931C175.134 40.1728 175.831 41.8553 175.831 43.6093C175.831 45.3634 175.134 47.0458 173.893 48.2876C173.13 49.0535 172.223 49.6615 171.224 50.077C170.226 50.4925 169.155 50.7072 168.073 50.7089H131.299" stroke="#2E0A16" stroke-width="0.68" stroke-miterlimit="10"/>
<path d="M171.191 236.89C171.443 236.639 171.643 236.341 171.779 236.013C171.915 235.685 171.986 235.334 171.986 234.979C171.986 234.624 171.915 234.272 171.779 233.944C171.643 233.616 171.443 233.318 171.191 233.068C170.546 232.449 169.686 232.104 168.792 232.104C167.898 232.104 167.038 232.449 166.393 233.068C165.998 233.46 165.684 233.926 165.471 234.439C165.257 234.953 165.147 235.503 165.147 236.06C165.147 236.616 165.257 237.166 165.471 237.68C165.684 238.193 165.998 238.659 166.393 239.052C166.884 239.546 167.468 239.938 168.112 240.206C168.755 240.473 169.446 240.611 170.143 240.611C170.84 240.611 171.53 240.473 172.174 240.206C172.818 239.938 173.402 239.546 173.893 239.052C175.134 237.81 175.831 236.127 175.831 234.373C175.831 232.619 175.134 230.937 173.893 229.695C173.13 228.929 172.223 228.321 171.224 227.906C170.226 227.49 169.155 227.275 168.073 227.274H131.299" stroke="#2E0A16" stroke-width="0.68" stroke-miterlimit="10"/>
<path d="M169.753 227.447C170.515 227.507 171.281 227.399 171.997 227.13C172.713 226.861 173.36 226.438 173.893 225.89C174.51 225.276 175 224.545 175.333 223.74C175.666 222.936 175.836 222.074 175.833 221.203C175.83 222.074 176 222.936 176.333 223.74C176.666 224.545 177.156 225.276 177.773 225.89C178.306 226.438 178.953 226.861 179.669 227.13C180.384 227.399 181.151 227.507 181.913 227.447C180.344 227.791 178.908 228.578 177.773 229.712C176.531 230.957 175.833 232.642 175.833 234.399C175.833 232.642 175.135 230.957 173.893 229.712C172.758 228.578 171.321 227.791 169.753 227.447Z" stroke="#2E0A16" stroke-width="0.68" stroke-miterlimit="10"/>
<path d="M180.475 236.89C180.223 236.639 180.023 236.341 179.887 236.013C179.751 235.685 179.68 235.334 179.68 234.979C179.68 234.624 179.751 234.272 179.887 233.944C180.023 233.616 180.223 233.318 180.475 233.068C181.12 232.449 181.98 232.104 182.874 232.104C183.769 232.104 184.628 232.449 185.273 233.068C185.668 233.46 185.982 233.926 186.195 234.439C186.409 234.953 186.519 235.503 186.519 236.06C186.519 236.616 186.409 237.166 186.195 237.68C185.982 238.193 185.668 238.659 185.273 239.052C184.782 239.546 184.198 239.938 183.554 240.206C182.911 240.473 182.22 240.611 181.523 240.611C180.826 240.611 180.136 240.473 179.492 240.206C178.848 239.938 178.264 239.546 177.773 239.052C176.532 237.81 175.835 236.127 175.835 234.373C175.835 232.619 176.532 230.937 177.773 229.695C178.536 228.929 179.443 228.321 180.442 227.906C181.44 227.49 182.511 227.275 183.593 227.274H220.367" stroke="#2E0A16" stroke-width="0.68" stroke-miterlimit="10"/>
</g>
<defs>
<clipPath id="clip0_366_1465">
<rect width="353" height="278" fill="white"/>
</clipPath>
</defs>
</svg>
